<svg width="19" height="18" viewBox="0 0 19 18" fill="none" xmlns="http://www.w3.org/2000/svg">
<path d="M9.17586 0C9.53194 0.0666048 9.8086 0.256166 9.7958 0.617369C9.77786 1.16045 10.034 1.25524 10.5105 1.33721C13.8408 1.90592 16.1796 4.18073 16.9148 7.51609C17.0173 7.98232 17.0429 8.44856 17.7499 8.38452C17.8386 8.37538 17.9281 8.38729 18.0112 8.41926C18.0944 8.45123 18.1688 8.50235 18.2284 8.5685C18.2881 8.63465 18.3313 8.71393 18.3545 8.79992C18.3778 8.88591 18.3804 8.97617 18.3622 9.06337C18.3625 9.14421 18.3449 9.22412 18.3107 9.29737C18.2765 9.37061 18.2265 9.43538 18.1643 9.48704C18.1021 9.5387 18.0293 9.57596 17.951 9.59616C17.8727 9.61636 17.7909 9.61901 17.7115 9.6039C17.0788 9.51936 17.0045 9.91387 16.9097 10.3724C16.2206 13.7718 13.8894 16.0902 10.5438 16.6922C10.0904 16.7742 9.77531 16.8715 9.80092 17.4325C9.78196 17.5929 9.70338 17.7402 9.58079 17.8452C9.45821 17.9503 9.30058 18.0054 9.13924 17.9996C8.9779 17.9938 8.82465 17.9275 8.70994 17.8139C8.59522 17.7003 8.52745 17.5477 8.52006 17.3864C8.55593 16.7793 8.16142 16.7562 7.75154 16.6845C6.19854 16.4146 4.76531 15.6759 3.64431 14.5677C2.52331 13.4596 1.76824 12.0349 1.48045 10.4851C1.38054 9.94717 1.296 9.52193 0.581279 9.58853C0.500633 9.59381 0.419821 9.5811 0.344683 9.55133C0.269545 9.52157 0.201953 9.47549 0.1468 9.41642C0.0916464 9.35734 0.0503073 9.28675 0.0257649 9.20975C0.0012225 9.13274 -0.00590512 9.05124 0.00489149 8.97115C0.000715003 8.89045 0.0137074 8.80978 0.0430109 8.73447C0.0723144 8.65916 0.117258 8.59093 0.174881 8.53428C0.232504 8.47762 0.301488 8.43384 0.377283 8.40581C0.453078 8.37779 0.533964 8.36617 0.614583 8.37171C1.27295 8.42295 1.38309 8.04637 1.483 7.53402C2.2259 4.1628 4.34702 2.15441 7.6747 1.35771C8.14093 1.24756 8.61228 1.28085 8.54824 0.563567C8.50213 0.217734 8.83515 0.0409876 9.17586 0ZM9.13999 11.5687C9.47233 11.58 9.80359 11.5251 10.1145 11.4071C10.4254 11.2892 10.7097 11.1106 10.951 10.8818C11.1922 10.6529 11.3856 10.3784 11.5197 10.0741C11.6539 9.76985 11.7262 9.44196 11.7325 9.10949C11.7528 8.60028 11.6208 8.09656 11.3533 7.66277C11.0859 7.22897 10.6951 6.88481 10.231 6.67429C9.7669 6.46377 9.25055 6.39646 8.74798 6.48097C8.24541 6.56548 7.77948 6.79795 7.40975 7.14869C7.04002 7.49942 6.7833 7.95246 6.67243 8.44987C6.56155 8.94729 6.60155 9.46648 6.78732 9.94103C6.97308 10.4156 7.29617 10.8239 7.71527 11.1139C8.13437 11.4039 8.63041 11.5622 9.13999 11.5687ZM9.81629 4.08082C9.56012 4.76737 9.89827 5.22591 10.8077 5.51538C11.2774 5.67053 11.7019 5.93848 12.044 6.29577C12.3861 6.65305 12.6354 7.08878 12.77 7.56476C12.9852 8.25643 13.3592 8.44344 14.0073 8.36915C14.3225 8.33968 14.6399 8.33968 14.9551 8.36915C15.4675 8.40757 15.616 8.22056 15.5417 7.70822C15.1985 5.3873 12.6572 2.94085 10.3312 2.69236C9.95463 2.65137 9.79836 2.73591 9.81886 3.11505C9.8163 3.37122 9.81629 3.6274 9.81629 4.08082ZM4.20611 9.61671C2.62809 9.61671 2.59223 9.65769 3.06103 11.0257C3.35954 11.9481 3.86481 12.7902 4.5383 13.4877C5.21179 14.1851 6.0357 14.7195 6.94716 15.0501C8.48419 15.6419 8.4842 15.6086 8.52006 13.9921C8.53287 13.3158 8.48419 12.8419 7.66957 12.596C7.194 12.454 6.76033 12.198 6.40628 11.8502C6.05223 11.5024 5.78853 11.0734 5.63812 10.6004C5.35633 9.72685 4.90803 9.41689 4.201 9.61671H4.20611ZM9.81629 13.8743C9.81629 15.5727 9.89571 15.6342 11.3533 15.0629C12.2622 14.7292 13.0858 14.1982 13.7648 13.5081C14.4439 12.818 14.9615 11.9859 15.2805 11.0718C15.7928 9.67306 15.7416 9.65513 14.2558 9.59877C13.4437 9.56547 12.939 9.70637 12.6598 10.5979C12.5087 11.0699 12.2469 11.499 11.8962 11.8493C11.5454 12.1996 11.116 12.4609 10.6437 12.6114C9.90339 12.865 9.67284 13.2697 9.81629 13.8743ZM8.50726 4.10131C8.50726 2.49767 8.50726 2.48231 7.13418 2.95879C6.22655 3.25 5.39689 3.74348 4.70774 4.40201C4.0186 5.06054 3.48795 5.86692 3.15581 6.76038C2.54356 8.34096 2.56404 8.34096 4.22148 8.37683C4.92083 8.39476 5.37682 8.29485 5.61762 7.51096C5.75808 7.05254 6.00382 6.63334 6.3352 6.28684C6.66658 5.94034 7.07441 5.67614 7.52611 5.51538C8.34586 5.22335 8.75318 4.83396 8.50469 4.10387L8.50726 4.10131Z" fill="#4670B7"/>
</svg>
