<svg width="24" height="18" viewBox="0 0 24 18" fill="none" xmlns="http://www.w3.org/2000/svg">
<path d="M18.0037 13.3754C16.1839 13.4482 14.4704 12.784 12.7811 12.047C11.631 11.4996 10.4394 11.0443 9.21744 10.6852C6.48786 9.99072 4.01911 10.4487 1.79299 12.1835L1.44119 12.4625C1.05905 12.7658 0.649611 12.9417 0.24624 12.5292C-0.157131 12.1168 -0.0267161 11.6194 0.36149 11.2524C1.74698 9.91358 3.52547 9.05463 5.43547 8.80183C7.57667 8.47125 9.60868 8.88676 11.5891 9.68137C12.8751 10.197 14.1428 10.7641 15.453 11.1978C17.7398 11.9833 19.9538 11.8044 22.0343 10.5002C22.5287 10.197 23.0807 9.84513 23.5144 10.4669C23.9481 11.0886 23.4962 11.5617 22.9593 11.9287C21.4987 12.9159 19.766 13.4218 18.0037 13.3754Z" fill="#4570B6"/>
<path d="M6.97056 6.7033C5.34937 6.67354 3.75161 7.09345 2.35453 7.91644C1.81165 8.23489 1.23239 8.58367 0.816885 7.83759C0.401383 7.0915 1.01402 6.7306 1.53264 6.42428C4.3532 4.7653 7.3618 4.60455 10.4402 5.46588C11.8777 5.86622 13.2456 6.50919 14.6649 6.98232C17.2216 7.84972 19.6752 7.81332 21.8771 5.9936C22.332 5.61753 22.8446 5.45679 23.2419 6.01483C23.6725 6.62141 23.2722 7.08847 22.8021 7.44332C20.1211 9.48443 17.1822 9.71493 14.0826 8.5958C12.0445 7.85882 10.0853 6.86707 7.86829 6.73666L6.97056 6.7033Z" fill="#4770B7"/>
<path d="M6.49988 14.6674C5.80666 14.6451 5.11592 14.7607 4.46773 15.0075C3.81954 15.2543 3.22682 15.6273 2.72396 16.105C2.28723 16.4993 1.79591 16.9087 1.27123 16.3476C0.691949 15.7411 1.20146 15.2497 1.64426 14.8312C3.83096 12.7628 7.21562 12.3807 9.99372 13.9213C10.7459 14.3368 11.4465 14.8312 12.1804 15.2922C14.0911 16.4629 16.0322 16.6479 18.0005 15.4347C18.5161 15.1315 19.0711 14.8706 19.4654 15.5197C19.8596 16.1687 19.3501 16.569 18.8588 16.8784C16.6418 18.2947 14.355 18.3584 12.047 17.1332C11.222 16.6964 10.4578 16.1475 9.65708 15.6683C8.65624 15.0617 7.60384 14.5886 6.49988 14.6674Z" fill="#4670B6"/>
<path d="M9.61398 0.0038174C11.0495 -0.00996444 12.4613 0.36974 13.6962 1.10171C14.2846 1.43533 14.8517 1.79928 15.4432 2.1238C17.3205 3.14587 19.1523 3.18226 20.9023 1.8205C21.3936 1.44139 21.9456 1.01983 22.4582 1.68099C22.9707 2.34215 22.443 2.80618 21.9577 3.17923C19.9803 4.69566 17.8088 5.02927 15.5099 4.04662C14.5664 3.58895 13.6472 3.08279 12.756 2.53019C10.5906 1.31704 8.47058 1.3595 6.40824 2.77281C6.28786 2.86301 6.16229 2.94605 6.03217 3.02151C5.55297 3.2793 5.08592 3.30661 4.74927 2.80619C4.41262 2.30577 4.69165 1.93575 5.05256 1.64762C6.43251 0.610385 7.95197 -0.0568399 9.61398 0.0038174Z" fill="#4670B6"/>
</svg>
