<svg width="19" height="18" viewBox="0 0 19 18" fill="none" xmlns="http://www.w3.org/2000/svg">
<path d="M9.2494 2.94088e-05C14.0961 2.94088e-05 18.172 4.13832 18.162 9.01995C18.1521 13.9016 13.9589 18.0174 8.98 17.9999C4.00109 17.9825 0 13.8891 0 8.84783C0.00748333 3.94375 4.14078 -0.0124428 9.2494 2.94088e-05ZM9.30927 16.5357C10.146 16.5194 10.9754 16.3755 11.7688 16.1091C12.2951 15.947 12.4473 15.74 11.9234 15.3259C11.0787 14.6948 10.4126 13.855 9.99024 12.8888C9.87051 12.5995 9.54624 12.1629 9.9678 12.0108C10.4368 11.8412 10.8708 11.1377 11.5193 11.7838C12.177 12.4446 13.0051 12.9101 13.9115 13.1283C15.1912 13.4376 15.5254 13.2605 16.0692 12.0632C16.3424 11.4422 16.5433 10.7919 16.6679 10.125C16.7876 9.50636 16.5905 9.31678 15.9819 9.60613C14.9823 10.1154 13.8456 10.2903 12.7391 10.105C12.4298 10.0501 11.9334 10.105 12.0906 9.57371C12.2328 9.10475 11.6391 8.35143 12.6418 8.17682C13.5269 7.99831 14.3343 7.5484 14.9517 6.88968C16.0093 5.82954 16.0393 5.54767 15.0864 4.3678C14.6878 3.89849 14.2587 3.45601 13.8018 3.04325C13.4451 2.70401 13.1881 2.65412 13.1258 3.2927C13.0378 4.28096 12.6777 5.22553 12.0856 6.02162C11.6216 6.65022 11.21 6.93459 10.4642 6.33592C10.0875 6.0316 10.0227 5.83704 10.2148 5.45289C10.3422 5.17204 10.4368 4.8774 10.4966 4.57485C10.9731 2.27746 9.93786 1.16494 7.68538 1.54409C7.32119 1.60645 6.96199 1.70373 6.60528 1.79353C6.06149 1.93821 5.91932 2.16521 6.43068 2.5718C7.2196 3.2216 7.83069 4.061 8.20673 5.01137C8.45617 5.62251 8.43622 5.96924 7.70784 6.27356C7.16155 6.50554 6.9171 6.47062 6.58534 6.02412C6.18245 5.5113 5.64668 5.11876 5.03628 4.88915C3.26772 4.14082 2.71894 4.36781 2.00802 6.13637C1.83899 6.59831 1.69412 7.06872 1.57399 7.54572C1.51413 7.74777 1.43181 7.98474 1.65382 8.1369C1.87582 8.28906 1.99805 8.08452 2.15271 8.01218C3.19039 7.53574 4.26051 7.32122 5.39548 7.60808C5.69482 7.68541 6.25108 7.67294 6.03905 8.1419C5.82703 8.61085 6.39575 9.38912 5.40795 9.5338C4.54796 9.67338 3.75234 10.076 3.13052 10.6862C1.95564 11.7938 1.90326 12.2054 2.88108 13.48C3.25065 13.9341 3.64539 14.3672 4.06344 14.7771C4.20563 14.9243 4.37276 15.1214 4.61472 15.0266C4.85668 14.9318 4.81179 14.6723 4.82426 14.4678C4.88123 13.3807 5.30306 12.3446 6.02159 11.5269C6.20618 11.3148 6.44814 10.7536 6.75496 11.1302C7.10667 11.5618 8.16432 11.447 7.8151 12.4498C7.43095 13.5548 7.61055 14.625 8.06454 15.6926C8.34641 16.3137 8.69813 16.6854 9.30927 16.5357Z" fill="#416FB6"/>
<path d="M10.9333 9.08065C10.9004 9.57461 10.6837 10.0383 10.3258 10.3804C9.96803 10.7226 9.49506 10.9183 9.00012 10.929C8.5041 10.9102 8.03544 10.6967 7.69558 10.3349C7.35572 9.97314 7.172 9.49207 7.18416 8.99584C7.20281 8.50079 7.41202 8.03211 7.76808 7.68767C8.12414 7.34323 8.59952 7.14968 9.09491 7.14746C9.58894 7.1777 10.0532 7.3939 10.3943 7.75256C10.7353 8.11122 10.9279 8.58574 10.9333 9.08065Z" fill="#416FB6"/>
</svg>
