<svg width="529" height="44" viewBox="0 0 529 44" fill="none" xmlns="http://www.w3.org/2000/svg">
<rect x="318.858" width="43.5548" height="43.5548" rx="11.06" fill="#0273BD"/>
<path d="M337.274 22.04C337.274 20.3298 338.661 18.9431 340.372 18.9431C342.083 18.9431 343.471 20.3298 343.471 22.04C343.471 23.7502 342.083 25.1369 340.372 25.1369C338.661 25.1369 337.274 23.7502 337.274 22.04ZM335.599 22.04C335.599 24.6747 337.736 26.8103 340.372 26.8103C343.008 26.8103 345.145 24.6747 345.145 22.04C345.145 19.4054 343.008 17.2697 340.372 17.2697C337.736 17.2697 335.599 19.4054 335.599 22.04ZM344.219 17.0806C344.219 17.301 344.284 17.5166 344.407 17.7C344.529 17.8834 344.703 18.0263 344.907 18.1108C345.111 18.1952 345.335 18.2174 345.552 18.1745C345.768 18.1315 345.967 18.0255 346.123 17.8696C346.279 17.7138 346.385 17.5152 346.428 17.2989C346.471 17.0827 346.449 16.8585 346.365 16.6548C346.281 16.4511 346.138 16.2769 345.954 16.1543C345.771 16.0318 345.555 15.9663 345.335 15.9662H345.334C345.039 15.9663 344.755 16.0838 344.546 16.2927C344.337 16.5017 344.219 16.785 344.219 17.0806ZM336.617 29.6019C335.711 29.5606 335.218 29.4098 334.891 29.2823C334.457 29.1134 334.147 28.9123 333.821 28.5874C333.496 28.2625 333.294 27.9533 333.126 27.5196C332.998 27.1926 332.847 26.7001 332.806 25.7944C332.761 24.8151 332.752 24.521 332.752 22.0401C332.752 19.5592 332.762 19.2659 332.806 18.2858C332.848 17.3801 333 16.8886 333.126 16.5606C333.295 16.1269 333.496 15.8174 333.821 15.492C334.146 15.1667 334.456 14.9653 334.891 14.7971C335.218 14.6696 335.711 14.5187 336.617 14.4776C337.597 14.4325 337.891 14.4235 340.372 14.4235C342.853 14.4235 343.148 14.4333 344.129 14.4776C345.035 14.5188 345.527 14.6708 345.855 14.7971C346.289 14.9653 346.599 15.1671 346.924 15.492C347.25 15.817 347.451 16.1269 347.62 16.5606C347.747 16.8876 347.898 17.3801 347.939 18.2858C347.984 19.2659 347.993 19.5592 347.993 22.0401C347.993 24.521 347.984 24.8143 347.939 25.7944C347.898 26.7001 347.746 27.1924 347.62 27.5196C347.451 27.9533 347.249 28.2628 346.924 28.5874C346.599 28.912 346.289 29.1134 345.855 29.2823C345.528 29.4098 345.035 29.5607 344.129 29.6019C343.149 29.6469 342.855 29.6559 340.372 29.6559C337.89 29.6559 337.596 29.6469 336.617 29.6019ZM336.54 12.8063C335.55 12.8513 334.874 13.0081 334.284 13.2378C333.672 13.4749 333.154 13.7931 332.637 14.3093C332.12 14.8255 331.802 15.3438 331.565 15.955C331.335 16.5455 331.178 17.221 331.133 18.2099C331.087 19.2005 331.077 19.5171 331.077 22.04C331.077 24.5629 331.087 24.8796 331.133 25.8701C331.178 26.8592 331.335 27.5345 331.565 28.1251C331.802 28.7359 332.12 29.2547 332.637 29.7707C333.154 30.2867 333.672 30.6045 334.284 30.8423C334.875 31.0719 335.55 31.2287 336.54 31.2738C337.531 31.3188 337.848 31.33 340.372 31.33C342.897 31.33 343.213 31.3196 344.205 31.2738C345.194 31.2287 345.87 31.0719 346.461 30.8423C347.072 30.6045 347.59 30.287 348.108 29.7707C348.625 29.2545 348.942 28.7359 349.18 28.1251C349.41 27.5345 349.567 26.8591 349.612 25.8701C349.657 24.8788 349.667 24.5629 349.667 22.04C349.667 19.5171 349.657 19.2005 349.612 18.2099C349.566 17.2209 349.41 16.5452 349.18 15.955C348.942 15.3441 348.624 14.8264 348.108 14.3093C347.591 13.7923 347.072 13.4749 346.462 13.2378C345.87 13.0081 345.194 12.8506 344.205 12.8063C343.214 12.7612 342.897 12.75 340.373 12.75C337.849 12.75 337.531 12.7605 336.54 12.8063Z" fill="white"/>
<rect x="374.434" y="0.0710449" width="43.4126" height="43.4126" rx="11.06" fill="#0273BD"/>
<path d="M391.813 29.1896V18.8304H388.409V29.1896H391.814H391.813ZM390.112 17.4163C391.299 17.4163 392.038 16.6208 392.038 15.6267C392.015 14.6099 391.299 13.8367 390.134 13.8367C388.969 13.8367 388.208 14.6099 388.208 15.6266C388.208 16.6207 388.947 17.4162 390.089 17.4162H390.111L390.112 17.4163ZM393.698 29.1896H397.102V23.4051C397.102 23.096 397.125 22.7859 397.214 22.5651C397.46 21.9463 398.021 21.3057 398.961 21.3057C400.193 21.3057 400.686 22.2555 400.686 23.6483V29.1896H404.09V23.2499C404.09 20.0682 402.411 18.5875 400.171 18.5875C398.335 18.5875 397.528 19.6256 397.08 20.3326H397.103V18.8307H393.698C393.742 19.8026 393.698 29.1899 393.698 29.1899L393.698 29.1896Z" fill="white"/>
<rect x="429.869" width="43.5548" height="43.5548" rx="11.06" fill="#0273BD"/>
<g clip-path="url(#clip0_8_2408)">
<path d="M462.166 21.6228V21.892C462.114 21.9081 462.13 21.9524 462.127 21.9873C462.084 22.7382 461.947 23.4808 461.72 24.1976C460.441 28.2455 456.785 30.9841 452.509 31.0806C450.972 31.116 449.501 30.7857 448.11 30.122C448.004 30.0712 447.907 30.0343 447.786 30.0631C447.031 30.24 446.276 30.4142 445.52 30.5857C444.543 30.808 443.566 31.0292 442.588 31.2494C442.555 31.1929 442.576 31.1437 442.588 31.0956C442.952 29.4442 443.318 27.793 443.686 26.1421C443.716 26.008 443.694 25.8674 443.624 25.7488C442.654 23.8523 442.309 21.8493 442.661 19.744C442.952 17.9469 443.758 16.2726 444.98 14.924C446.556 13.1671 448.507 12.0904 450.843 11.7186C451.065 11.6836 451.295 11.6982 451.507 11.6102H453.08C453.097 11.6613 453.142 11.6421 453.176 11.6459C453.436 11.6755 453.698 11.6905 453.955 11.7348C455.942 12.0781 457.675 12.9333 459.125 14.3388C460.824 15.9861 461.836 17.9779 462.101 20.3412C462.118 20.4992 462.083 20.668 462.167 20.8172V21.0864C462.105 21.2597 462.105 21.4491 462.166 21.6228ZM460.603 21.2383C460.615 20.923 460.58 20.5023 460.511 20.0847C460.256 18.5543 459.639 17.1827 458.6 16.0299C456.359 13.5432 453.577 12.6492 450.325 13.4086C448.012 13.9469 446.273 15.3289 445.103 17.3946C444.214 18.9634 443.901 20.6592 444.152 22.4472C444.306 23.5501 444.694 24.576 445.266 25.5307C445.298 25.5774 445.32 25.63 445.33 25.6853C445.341 25.7407 445.34 25.7976 445.327 25.8526C445.092 26.9077 444.866 27.9648 444.623 29.0184C444.585 29.191 444.623 29.208 444.777 29.1722C445.842 28.9269 446.909 28.6896 447.973 28.4416C448.03 28.426 448.09 28.4219 448.148 28.4298C448.207 28.4377 448.263 28.4572 448.314 28.4874C450.155 29.494 452.102 29.776 454.153 29.3333C457.9 28.5266 460.606 25.172 460.603 21.2394V21.2383Z" fill="white"/>
<path d="M462.165 21.6227C462.103 21.4487 462.103 21.2585 462.165 21.0844V21.6227Z" fill="#6E6B71"/>
<path d="M449.394 17.0523C449.966 17.0523 450.035 17.0954 450.239 17.583C450.456 18.0982 450.667 18.6162 450.882 19.1322C450.909 19.1964 450.922 19.2656 450.92 19.3353C450.918 19.4049 450.9 19.4732 450.869 19.5356C450.751 19.8082 450.543 20.0047 450.344 20.2112C450.113 20.4504 450.11 20.5111 450.279 20.7918C451.001 21.9885 452 22.861 453.297 23.3878C453.523 23.4797 453.627 23.4624 453.785 23.2813C454.02 23.0121 454.25 22.7375 454.462 22.4491C454.611 22.2469 454.699 22.2153 454.938 22.3092C455.589 22.5645 456.2 22.9052 456.826 23.2132C456.941 23.2705 456.987 23.3758 456.982 23.4985C456.959 24.0999 456.811 24.6294 456.281 25.0112C455.568 25.5246 454.813 25.5649 453.991 25.3654C451.788 24.8309 450.153 23.5247 448.888 21.6897C448.482 21.1002 448.085 20.5092 447.927 19.7971C447.711 18.8065 447.966 17.9563 448.71 17.2592C448.918 17.0666 449.172 17.0293 449.394 17.0523Z" fill="white"/>
</g>
<rect x="485.445" width="43.5548" height="43.5548" rx="11.06" fill="#0273BD"/>
<path d="M516.059 26.6534L516.035 26.8509C516.019 26.9071 516.003 26.9624 515.988 27.0177C515.98 27.0898 515.972 27.1618 515.963 27.2329C515.938 27.2654 515.921 27.3025 515.911 27.3419C515.902 27.3813 515.901 27.4221 515.908 27.4619C515.9 27.531 515.892 27.5991 515.885 27.6673C515.859 27.701 515.841 27.7397 515.831 27.7809C515.822 27.8222 515.822 27.8648 515.831 27.9062C515.825 27.9536 515.819 28.0049 515.813 28.0493L515.765 28.1984C515.664 28.5854 515.563 28.9753 515.361 29.3287C515.171 29.6594 514.918 29.9121 514.525 30L513.931 29.9921C513.344 29.8569 512.846 29.5528 512.354 29.228C510.941 28.2922 509.525 27.3602 508.107 26.4323L507.337 25.9041C507.141 25.7699 506.933 25.6455 506.75 25.5014C505.942 24.8735 505.873 24.3434 506.605 23.6257C507.638 22.6168 508.715 21.6513 509.772 20.6641C510.71 19.7895 511.675 18.9405 512.552 18.0056C512.651 17.9108 512.736 17.8032 512.805 17.6857C512.918 17.4646 512.778 17.2613 512.524 17.2534C512.322 17.2474 512.167 17.3521 512.007 17.4508C509.396 19.0797 506.843 20.7915 504.271 22.4776C503.681 22.8636 503.074 23.2061 502.346 23.2742C501.841 23.3216 501.344 23.2101 500.857 23.0926C499.847 22.8478 498.849 22.5368 497.862 22.2041C497.767 22.1706 497.675 22.132 497.584 22.0886C497.309 21.9573 497.027 21.8211 497.002 21.4736C496.976 21.1261 497.234 20.9435 497.491 20.7826C497.715 20.6449 497.948 20.5244 498.19 20.4223C503.085 18.3541 507.958 16.2336 512.907 14.2898C514.096 13.8229 515.265 13.2898 516.531 13.0459C517.585 12.8436 518.094 13.3145 517.986 14.3668C517.847 15.7242 517.646 17.0747 517.442 18.4252C517.025 21.1804 516.526 23.914 516.059 26.6534Z" fill="#FEFFFF"/>
<defs>
<clipPath id="clip0_8_2408">
<rect width="19.64" height="19.64" fill="white" transform="translate(442.525 11.6104)"/>
</clipPath>
</defs>
</svg>
