<svg width="24" height="14" viewBox="0 0 24 14" fill="none" xmlns="http://www.w3.org/2000/svg">
<g clip-path="url(#clip0_0_206)">
<path d="M6.38297 6.71817H1.0928C0.525883 6.71817 -0.0167684 6.64238 0.00142134 5.90873C0.019611 5.17508 0.525883 5.09626 1.11098 5.08716C5.2744 5.02451 9.4358 4.95478 13.5952 4.87798C14.829 4.85676 14.8351 4.84767 14.3531 3.70778C14.0317 2.94381 13.674 2.19197 13.3708 1.41891C13.2193 1.0248 12.7645 0.591281 13.1889 0.185045C13.6134 -0.221192 14.0984 0.133508 14.5107 0.394227L22.1565 5.18114C22.5688 5.43883 22.9932 5.68136 23.3964 5.95723C24.0724 6.41804 24.0755 6.92129 23.4146 7.38816C20.4052 9.51231 17.3908 11.6344 14.3713 13.7545C14.0105 14.0092 13.6043 14.1274 13.2314 13.8122C12.8585 13.4969 13.0162 13.124 13.1738 12.7693C13.4012 12.2509 13.6043 11.7173 13.8771 11.2231C14.2864 10.4743 14.1803 10.1924 13.2708 10.2136C10.0815 10.2834 6.9044 10.2894 3.70605 10.3197C3.44533 10.3197 3.18159 10.3197 2.92087 10.3197C2.37518 10.3349 1.89012 10.1712 1.87496 9.55576C1.85677 8.87971 2.35698 8.70994 2.94814 8.69478C5.57352 8.62809 8.19587 8.54926 10.8303 8.47651C11.2426 8.47651 11.6549 8.46135 12.0672 8.44316C12.622 8.41588 13.0434 8.16729 13.0252 7.564C13.007 6.9607 12.5796 6.72424 12.0248 6.72121C10.1331 6.71817 8.25651 6.71817 6.38297 6.71817Z" fill="white"/>
<path d="M7.71548 1.41286C8.87962 1.41286 10.0407 1.41286 11.2049 1.41286C11.7081 1.41286 12.1295 1.56142 12.1598 2.13439C12.1901 2.7589 11.7657 2.9893 11.2079 2.99233C8.88567 2.99233 6.56042 2.99233 4.23517 2.99233C3.66523 2.99233 3.259 2.75284 3.28326 2.14045C3.30448 1.57657 3.71678 1.4068 4.22912 1.40983C5.39326 1.41892 6.55437 1.41286 7.71548 1.41286Z" fill="white"/>
<path d="M8.22263 13.4817H5.9762C5.50326 13.4817 5.16677 13.2847 5.13645 12.7723C5.10007 12.1993 5.43961 11.9325 5.96408 11.9265C7.49807 11.9083 9.03308 11.9083 10.5691 11.9265C11.0754 11.9265 11.4786 12.1781 11.4786 12.7238C11.4786 13.3635 11.0178 13.509 10.4691 13.4999C9.72024 13.4726 8.97144 13.4817 8.22263 13.4817Z" fill="white"/>
</g>
<defs>
<clipPath id="clip0_0_206">
<rect width="23.9043" height="14" fill="white"/>
</clipPath>
</defs>
</svg>
