<svg width="26" height="18" viewBox="0 0 26 18" fill="none" xmlns="http://www.w3.org/2000/svg">
<path d="M5.51673 2.2169C4.93598 3.02663 4.81651 3.87617 4.60081 4.70581C4.23909 6.09628 3.9371 7.50002 3.13402 8.72788C2.62628 9.51105 1.99244 10.125 0.976967 10.1648C0.512371 10.1814 0.157275 10.0321 0.0311703 9.56084C-0.0239851 9.37953 -0.00543438 9.18378 0.0827795 9.01605C0.170993 8.84832 0.321773 8.72212 0.502418 8.66483C1.89289 8.13718 2.26455 6.90932 2.58645 5.67814C2.97804 4.17152 3.28335 2.64167 3.96365 1.22798C4.27228 0.590816 4.62736 -0.00983357 5.48023 0.000122054C6.33309 0.0100777 6.68485 0.663825 6.94037 1.29103C8.00894 3.99232 8.19479 6.86949 8.54988 9.71017C8.72489 11.5958 8.99736 13.471 9.36623 15.3285C10.3286 13.6692 10.249 11.9303 10.4979 10.271C10.8861 7.67922 11.1184 5.06422 11.8551 2.53217C11.9673 2.13856 12.1082 1.75369 12.2766 1.38064C12.6084 0.653876 12.9801 -0.033067 13.9359 0.00675549C14.8916 0.046578 15.1538 0.756751 15.396 1.45364C16.3152 4.10848 16.521 6.89936 16.8927 9.66039C17.1681 11.7112 17.417 13.7687 18.2201 15.9092C19.0597 13.9181 19.2157 11.99 19.6006 10.1084C19.8429 8.90376 20.0519 7.68917 20.5962 6.56751C21.386 4.90824 22.5873 4.81532 23.6426 6.33521C24.2466 7.18476 24.5154 8.29979 25.6636 8.72125C25.7385 8.75865 25.8048 8.81148 25.8579 8.87629C25.911 8.94109 25.9498 9.01639 25.9717 9.09725C25.9936 9.1781 25.9982 9.26269 25.9852 9.34545C25.9721 9.4282 25.9417 9.50726 25.8959 9.57743C25.8158 9.74514 25.6889 9.88609 25.5305 9.98326C25.3721 10.0804 25.189 10.1296 25.0032 10.125C24.0076 10.125 23.4767 9.43805 23.0121 8.70797C22.7466 8.30311 22.5209 7.87501 22.199 7.31418C21.3727 9.15597 21.2964 11.0077 20.8716 12.7732C20.6128 13.8484 20.4203 14.9468 20.0619 15.9888C19.7533 16.8948 19.438 18.0132 18.2068 17.9999C16.9756 17.9866 16.7135 16.8716 16.4148 15.9424C15.8129 13.8983 15.4073 11.8014 15.2035 9.6803C14.9944 7.63678 14.6742 5.60616 14.2445 3.59742C14.1582 3.21247 14.1748 2.77442 13.6637 2.46247C13.221 3.80311 12.9153 5.18516 12.7511 6.58743C12.3297 9.29867 11.9481 12.0166 11.5133 14.7278C11.3914 15.4128 11.2059 16.085 10.9591 16.7355C10.7136 17.3992 10.3319 17.9999 9.47574 17.9866C8.61956 17.9733 8.26448 17.3793 8.04545 16.6857C7.33529 14.4424 7.15277 12.1062 6.82755 9.79645C6.46915 7.28763 6.27999 4.75227 5.51673 2.2169Z" fill="#4670B6"/>
</svg>
