<svg width="15" height="18" viewBox="0 0 15 18" fill="none" xmlns="http://www.w3.org/2000/svg">
<path d="M6.81713 9.78393C7.12274 11.5243 6.53743 12.6483 5.55845 13.6947C4.68567 14.6296 4.65459 15.7666 5.23472 16.9087C5.39011 17.2143 5.67499 17.5536 5.35644 17.8695C5.03788 18.1855 4.69861 17.8462 4.40595 17.7038C0.692066 15.9116 -0.815241 12.638 0.427902 9.05618C0.560284 8.69886 0.720478 8.35248 0.907024 8.02022C1.0417 7.76124 1.21781 7.50225 1.5519 7.52556C1.97923 7.57218 1.9637 7.95548 1.99996 8.26367C2.05427 9.06804 2.35748 9.83558 2.86757 10.4599C3.01778 10.6334 3.18353 10.8043 3.43475 10.7474C3.55976 10.7127 3.6704 10.6389 3.75053 10.5369C3.83067 10.4348 3.87612 10.3099 3.88022 10.1802C3.92728 9.57131 3.8739 8.95884 3.72222 8.36727C3.06957 4.83727 4.5976 1.61804 7.55784 0.284251C7.88416 0.136628 8.24416 -0.194876 8.61451 0.154757C8.94084 0.460363 8.69997 0.817766 8.57825 1.13373C8.06027 2.51155 8.39956 3.77023 9.07552 4.99007C9.78773 6.27206 10.6424 7.48412 11.0153 8.95517C11.611 8.40353 11.6058 8.40353 11.6343 6.98686C11.6343 6.68385 11.51 6.29278 11.8933 6.14515C12.2766 5.99753 12.4812 6.32645 12.6703 6.56213C15.8947 10.4055 14.6386 16.3234 9.35781 17.8903C9.0781 17.9731 8.77249 18.1 8.5653 17.8152C8.30631 17.4681 8.5653 17.1418 8.70774 16.8284C9.7178 14.4975 9.33709 12.2417 7.61482 10.4547C7.45166 10.2838 7.25223 10.1439 6.81713 9.78393Z" fill="#3E6EB6"/>
</svg>
